<?xml version="1.0" encoding="UTF-8" standalone="no"?>
<!-- Created with Inkscape (http://www.inkscape.org/) -->

<svg
   xmlns:dc="http://purl.org/dc/elements/1.1/"
   xmlns:cc="http://creativecommons.org/ns#"
   xmlns:rdf="http://www.w3.org/1999/02/22-rdf-syntax-ns#"
   xmlns:svg="http://www.w3.org/2000/svg"
   xmlns="http://www.w3.org/2000/svg"
   xmlns:sodipodi="http://sodipodi.sourceforge.net/DTD/sodipodi-0.dtd"
   xmlns:inkscape="http://www.inkscape.org/namespaces/inkscape"
   width="219.23265"
   height="203.00063"
   id="svg2"
   version="1.1"
   inkscape:version="0.48.5 r10040"
   sodipodi:docname="New document 1">
  <defs
     id="defs4" />
  <sodipodi:namedview
     id="base"
     pagecolor="#ffffff"
     bordercolor="#666666"
     borderopacity="1.0"
     inkscape:pageopacity="0.0"
     inkscape:pageshadow="2"
     inkscape:zoom="0.35"
     inkscape:cx="177.13514"
     inkscape:cy="-242.13411"
     inkscape:document-units="px"
     inkscape:current-layer="layer1"
     showgrid="false"
     fit-margin-top="10"
     fit-margin-left="10"
     fit-margin-right="10"
     fit-margin-bottom="10"
     inkscape:window-width="1022"
     inkscape:window-height="576"
     inkscape:window-x="0"
     inkscape:window-y="22"
     inkscape:window-maximized="0" />
  <metadata
     id="metadata7">
    <rdf:RDF>
      <cc:Work
         rdf:about="">
        <dc:format>image/svg+xml</dc:format>
        <dc:type
           rdf:resource="http://purl.org/dc/dcmitype/StillImage" />
        <dc:title></dc:title>
      </cc:Work>
    </rdf:RDF>
  </metadata>
  <g
     inkscape:label="Layer 1"
     inkscape:groupmode="layer"
     id="layer1"
     transform="translate(-23.845336,-378.10187)">
    <path
       style="fill:#8abd50;fill-opacity:0.94117647"
       d="m 138.07555,570.64525 -7.59737,0.45724 -5.26985,-1.48489 c -2.89842,-0.8167 -6.72342,-2.21722 -8.5,-3.11227 -1.77658,-0.89505 -4.73208,-3.03949 -6.56778,-4.76541 l -3.33763,-3.13805 -1.98213,-3.84691 c -1.09017,-2.11579 -1.81642,-4.01261 -1.61388,-4.21515 0.20253,-0.20253 3.27142,0.8353 6.81976,2.30631 l 6.45151,2.67456 9.5,0.0406 9.5,0.0406 5.26273,-1.83459 5.26273,-1.8346 6.11114,-4.08086 6.11114,-4.08087 4.29415,-5.83318 4.29415,-5.83319 2.03815,-6.25135 c 1.12098,-3.43825 2.19397,-7.82636 2.38441,-9.75136 l 0.34626,-3.5 1.62449,3.54298 1.62449,3.54298 0.68667,6.06929 0.68666,6.06928 -1.17083,6.94145 -1.17083,6.94144 -3.28369,5.94629 -3.28369,5.94629 -5.06539,4.1431 -5.0654,4.14311 -5.7463,2.14997 -5.74631,2.14996 -7.59736,0.45724 z m -70.616294,-0.54338 -21.48108,0 0,-8.5 0,-8.5 -3,0 -3,0 0,2.5 0,2.5 -3,0 -3,0 0,-2.5 0,-2.5 3,0 3,0 0,-6 0,-6 -3,0 -3,0 0,-5.5 0,-5.5 3,0 3,0 0,-5.43358 0,-5.43358 2.75,-0.31642 2.75,-0.31642 0,-5.5 0,-5.5 -2.75,-0.31642 -2.75,-0.31642 0,3.06642 0,3.06642 -3,0 -3,0 0,-3 0,-3 3,0 3,0 0,-2.5 0,-2.5 -3,0 -3,0 0,-3 0,-3 6,0 6,0 0,-5.5 0,-5.5 -3,0 -3,0 0,-8.43358 0,-8.43357 -2.75,-0.31643 -2.75,-0.31642 -0.31642,-2.75 -0.31642,-2.75 3.06642,0 3.06642,0 0,-3 0,-3 3,0 3,0 0,-2.5 0,-2.5 -3,0 -3,0 0,-3 0,-3 -3,0 -3,0 0,-3 0,-3 3,0 3,0 0,-2.43358 0,-2.43357 -2.75,-0.31643 -2.75,-0.31642 -0.29044,-8.25 -0.29044,-8.25 3.04044,0 3.04044,0 0,2.5 0,2.5 3.06642,0 3.06642,0 -0.31642,-2.75 -0.31642,-2.75 -2.75,-0.31642 -2.75,-0.31643 0,-2.43357 0,-2.43358 -3,0 -3,0 0,-3 0,-3 6,0 6,0 0,-5.5 0,-5.5 -3,0 -3,0 0,-3 0,-3 90.500004,0 90.5,0 0,8.5 0,8.5 3,0 3,0 0,-8.5 0,-8.5 3,0 3,0 0,14 0,14 -3,0 -3,0 0,-2.5 0,-2.5 -3.06642,0 -3.06642,0 0.31642,2.75 0.31642,2.75 2.75,0.31642 2.75,0.31643 0,2.36715 0,2.36715 -2.75,0.31643 -2.75,0.31642 -0.29044,8.25 -0.29044,8.25 3.04044,0 3.04044,0 0,-5.5 0,-5.5 3.03275,0 3.03275,0 -0.28275,11.25 -0.28275,11.25 -2.5,0 -2.5,0 -0.31642,-2.75 -0.31642,-2.75 -2.97402,0 -2.97402,0 0.29044,8.25 0.29044,8.25 2.75,0.31642 2.75,0.31643 0,-3.06643 0,-3.06642 3,0 3,0 0,3 0,3 -3,0 -3,0 0,3 0,3 3,0 3,0 0,10.9501 0,10.95009 -5.75,0.29991 -5.75,0.2999 -0.31642,2.75 -0.31642,2.75 3.06642,0 3.06642,0 0,3 0,3 3,0 3,0 0,2.5 0,2.5 -3,0 -3,0 0,3 0,3 3,0 3,0 0,3 0,3 -6,0 -6,0 0,5.5 0,5.5 3,0 3,0 0,-3 0,-3 3,0 3,0 0,3 0,3 -3,0 -3,0 0,3 0,3 3,0 3,0 0,8.5 0,8.5 -3,0 -3,0 0,2.43358 0,2.43358 2.75,0.31642 2.75,0.31642 0.2999,5.75 0.29991,5.75 -24.59795,0 -24.59794,0 2.90741,-4.25 c 1.59908,-2.3375 3.69515,-5.78577 4.65793,-7.66283 0.96278,-1.87706 2.58144,-5.828 3.59704,-8.77986 l 1.84652,-5.36703 1.08265,-7.90723 1.08265,-7.90722 -1.00067,-7.98049 -1.00066,-7.9805 -2.02094,-5.99906 -2.02094,-5.99906 -3.57173,-6.09424 -3.57174,-6.09423 -5.25491,-5.38241 -5.25491,-5.38241 -17.44081,-11.44513 -17.44081,-11.44514 -5.12504,-5.46959 c -2.81877,-3.00827 -5.95689,-7.01849 -6.97361,-8.91158 l -1.84857,-3.44199 -0.0264,-7 -0.0264,-7 2.85414,-5.81253 c 1.56977,-3.19689 2.69477,-5.96382 2.5,-6.14874 -0.19478,-0.18492 -2.82914,0.58937 -5.85414,1.72066 l -5.5,2.05687 -5.6393,5.75422 -5.6393,5.75421 -2.23572,6.71834 -2.23572,6.71833 0.47477,6.63543 0.47476,6.63543 2.00591,4.5347 2.00591,4.53469 3.39435,3.88042 3.39434,3.88041 11.04842,8.18486 11.04842,8.18486 2.85974,3.38392 c 1.57286,1.86116 3.65301,5.18392 4.62256,7.38392 0.96954,2.2 2.07117,5.67534 2.44806,7.72298 l 0.68524,3.72298 -1.1848,4.93883 -1.18481,4.93883 -3.61561,4.22402 -3.61561,4.22403 -4.0558,1.8422 -4.05581,1.84221 -4.78212,0.022 -4.78212,0.0219 -3.71788,-1.55305 -3.71788,-1.55305 -2.84158,-2.69695 c -1.56287,-1.48332 -3.63953,-4.27195 -4.6148,-6.19695 -0.97527,-1.925 -2.08397,-5.21163 -2.46379,-7.30362 l -0.69057,-3.80361 1.55672,-5.35493 1.55672,-5.35492 5.24865,-4.73093 5.24865,-4.73093 -2.5,0.70394 c -1.375,0.38717 -5.7911,2.28865 -9.81356,4.22551 l -7.313574,3.52157 -5.26044,5.34517 -5.26044,5.34516 -3.1563,5.92182 -3.1563,5.92182 -1.62432,6.89698 -1.62433,6.89697 0.60853,8 0.60852,8 1.50144,4.92666 c 0.82579,2.70967 3.06553,7.77217 4.97719,11.25 l 3.47574,6.32334 -21.48108,0 z m 156.987544,-17 2.53138,0 0,-3 0,-3 -2.53138,0 -2.53139,0 -0.5756,1.5 -0.57561,1.5 0.57561,1.5 0.5756,1.5 2.53139,0 z m -181.718624,-17.18358 2.75,-0.31642 0.31642,-2.75 0.31642,-2.75 -3.06642,0 -3.06642,0 0,3.06642 0,3.06642 2.75,-0.31642 z m 181.250004,-28.81642 3,0 0,-2.5 0,-2.5 -3,0 -3,0 0,2.5 0,2.5 3,0 z m 0.66667,-22 2.33333,0 0,-8.5 0,-8.5 -3,0 -3,0 0,7.83333 0,7.83334 0.66667,0.66666 c 0.36666,0.36667 1.71666,0.66667 3,0.66667 z m -181.916674,-17.18358 2.75,-0.31642 0.31642,-2.75 0.31642,-2.75 -3.06642,0 -3.06642,0 0,3.06642 0,3.06643 2.75,-0.31643 z m 0,-23 2.75,-0.31642 0,-2.5 0,-2.5 -2.75,-0.31642 -2.75,-0.31643 0,3.13285 0,3.13285 2.75,-0.31643 z"
       id="path3951"
       inkscape:connector-curvature="0" />
  </g>
</svg>
